<svg width="168" height="182" viewBox="0 0 168 182" fill="none" xmlns="http://www.w3.org/2000/svg">
<path d="M8.56747 91.4801C9.84424 83.2948 17.3747 78.3653 25.3872 80.4698L129.865 107.911C137.877 110.015 143.338 118.357 142.061 126.542L135.805 166.646C134.529 174.832 126.998 179.761 118.986 177.657L4.39696e-05 146.405L8.56747 91.4801Z" fill="white"/>
<path d="M0 15C0 6.71573 6.71573 0 15 0H153C161.284 0 168 6.71573 168 15V131C168 139.284 161.284 146 153 146H0V15Z" fill="url(#paint0_linear_109_4)"/>
<path d="M88.3462 65.9066C88.3462 57.6223 95.0619 50.9066 103.346 50.9066H168V95.8242H103.346C95.0619 95.8242 88.3462 89.1084 88.3462 80.8242V65.9066Z" fill="white"/>
<circle cx="112.901" cy="73.0659" r="7.78571" fill="#F88913"/>
<defs>
<linearGradient id="paint0_linear_109_4" x1="168" y1="0" x2="-21.5876" y2="99.6693" gradientUnits="userSpaceOnUse">
<stop stop-color="#FA9014"/>
<stop offset="1" stop-color="#F17811"/>
</linearGradient>
</defs>
</svg>
