<svg width="891" height="185" viewBox="0 0 891 185" fill="none" xmlns="http://www.w3.org/2000/svg">
<path d="M8.56743 94.4801C9.8442 86.2948 17.3747 81.3653 25.3872 83.4698L129.865 110.911C137.877 113.015 143.338 121.357 142.061 129.542L135.805 169.646C134.529 177.832 126.998 182.761 118.986 180.657L-1.80678e-06 149.405L8.56743 94.4801Z" fill="url(#paint0_linear_103_35)"/>
<path d="M0 18C0 9.71573 6.71573 3 15 3H153C161.284 3 168 9.71573 168 18V134C168 142.284 161.284 149 153 149H0V18Z" fill="url(#paint1_linear_103_35)"/>
<path d="M88.3462 68.9066C88.3462 60.6223 95.0619 53.9066 103.346 53.9066H168V98.8242H103.346C95.0619 98.8242 88.3462 92.1084 88.3462 83.8242V68.9066Z" fill="white"/>
<circle cx="112.901" cy="76.0659" r="7.78571" fill="#A31D14"/>
<path d="M196.055 107V47H214.219V58.0156H214.883C216.133 54.3698 218.242 51.4922 221.211 49.3828C224.18 47.2734 227.721 46.2188 231.836 46.2188C236.003 46.2188 239.57 47.2865 242.539 49.4219C245.508 51.5573 247.396 54.4219 248.203 58.0156H248.828C249.948 54.4479 252.135 51.5964 255.391 49.4609C258.646 47.2995 262.487 46.2188 266.914 46.2188C272.591 46.2188 277.201 48.0417 280.742 51.6875C284.284 55.3073 286.055 60.2812 286.055 66.6094V107H266.953V70.9844C266.953 67.9896 266.185 65.7109 264.648 64.1484C263.112 62.5599 261.12 61.7656 258.672 61.7656C256.042 61.7656 253.971 62.625 252.461 64.3437C250.977 66.0365 250.234 68.3151 250.234 71.1797V107H231.875V70.7891C231.875 68.0026 231.12 65.8021 229.609 64.1875C228.099 62.5729 226.107 61.7656 223.633 61.7656C221.966 61.7656 220.495 62.1693 219.219 62.9766C217.943 63.7578 216.94 64.8776 216.211 66.3359C215.508 67.7943 215.156 69.513 215.156 71.4922V107H196.055ZM307.422 129.5C305.13 129.5 302.969 129.318 300.938 128.953C298.906 128.615 297.161 128.159 295.703 127.586L299.922 113.719C301.797 114.344 303.49 114.708 305 114.812C306.536 114.917 307.852 114.669 308.945 114.07C310.065 113.497 310.924 112.469 311.523 110.984L312.266 109.187L290.938 47H310.938L321.992 89.8125H322.617L333.828 47H353.945L331.328 112.742C330.234 116.023 328.685 118.914 326.68 121.414C324.701 123.94 322.135 125.919 318.984 127.352C315.859 128.784 312.005 129.5 307.422 129.5ZM361.27 107V47H379.824V57.9375H380.449C381.543 53.9792 383.327 51.0365 385.801 49.1094C388.275 47.1562 391.152 46.1797 394.434 46.1797C395.319 46.1797 396.23 46.2448 397.168 46.375C398.105 46.4792 398.978 46.6484 399.785 46.8828V63.4844C398.874 63.1719 397.676 62.9245 396.191 62.7422C394.733 62.5599 393.431 62.4687 392.285 62.4687C390.02 62.4687 387.975 62.9766 386.152 63.9922C384.355 64.9818 382.936 66.375 381.895 68.1719C380.879 69.9427 380.371 72.026 380.371 74.4219V107H361.27ZM432.5 108.133C426.224 108.133 420.807 106.896 416.25 104.422C411.719 101.922 408.229 98.3672 405.781 93.7578C403.359 89.1224 402.148 83.6146 402.148 77.2344C402.148 71.0365 403.372 65.6198 405.82 60.9844C408.268 56.3229 411.719 52.7031 416.172 50.125C420.625 47.5208 425.872 46.2188 431.914 46.2188C436.185 46.2188 440.091 46.8828 443.633 48.2109C447.174 49.5391 450.234 51.5052 452.813 54.1094C455.391 56.7135 457.396 59.9297 458.828 63.7578C460.26 67.5599 460.977 71.9219 460.977 76.8437V81.6094H408.828V70.5156H443.203C443.177 68.4844 442.695 66.6745 441.758 65.0859C440.82 63.4974 439.531 62.2604 437.891 61.375C436.276 60.4635 434.414 60.0078 432.305 60.0078C430.169 60.0078 428.255 60.4896 426.563 61.4531C424.87 62.3906 423.529 63.6797 422.539 65.3203C421.549 66.9349 421.029 68.7708 420.977 70.8281V82.1172C420.977 84.5651 421.458 86.7135 422.422 88.5625C423.385 90.3854 424.753 91.8047 426.523 92.8203C428.294 93.8359 430.404 94.3437 432.852 94.3437C434.544 94.3437 436.081 94.1094 437.461 93.6406C438.841 93.1719 440.026 92.4818 441.016 91.5703C442.005 90.6589 442.747 89.5391 443.242 88.2109L460.781 88.7187C460.052 92.651 458.451 96.0755 455.977 98.9922C453.529 101.883 450.313 104.135 446.328 105.75C442.344 107.339 437.734 108.133 432.5 108.133ZM523.115 65.3203L505.576 65.7891C505.394 64.5391 504.899 63.4323 504.092 62.4687C503.285 61.4792 502.23 60.7109 500.928 60.1641C499.652 59.5911 498.167 59.3047 496.475 59.3047C494.261 59.3047 492.373 59.7474 490.811 60.6328C489.274 61.5182 488.519 62.7161 488.545 64.2266C488.519 65.3984 488.988 66.4141 489.951 67.2734C490.941 68.1328 492.699 68.8229 495.225 69.3437L506.787 71.5312C512.777 72.6771 517.23 74.5781 520.146 77.2344C523.089 79.8906 524.574 83.4062 524.6 87.7812C524.574 91.8958 523.35 95.4766 520.928 98.5234C518.532 101.57 515.251 103.94 511.084 105.633C506.917 107.299 502.152 108.133 496.787 108.133C488.219 108.133 481.462 106.375 476.514 102.859C471.592 99.3177 468.779 94.5781 468.076 88.6406L486.943 88.1719C487.36 90.3594 488.441 92.026 490.186 93.1719C491.93 94.3177 494.157 94.8906 496.865 94.8906C499.313 94.8906 501.305 94.4349 502.842 93.5234C504.378 92.612 505.16 91.401 505.186 89.8906C505.16 88.5365 504.561 87.4557 503.389 86.6484C502.217 85.8151 500.381 85.1641 497.881 84.6953L487.412 82.7031C481.396 81.6094 476.917 79.5911 473.975 76.6484C471.032 73.6797 469.574 69.9036 469.6 65.3203C469.574 61.3099 470.641 57.8854 472.803 55.0469C474.964 52.1823 478.037 49.9948 482.021 48.4844C486.006 46.974 490.706 46.2188 496.123 46.2188C504.248 46.2188 510.654 47.9245 515.342 51.3359C520.029 54.7214 522.62 59.3828 523.115 65.3203ZM534.004 107V47H553.105V107H534.004ZM543.574 40.0078C540.892 40.0078 538.587 39.1224 536.66 37.3516C534.733 35.5547 533.77 33.3932 533.77 30.8672C533.77 28.3672 534.733 26.2318 536.66 24.4609C538.587 22.6641 540.892 21.7656 543.574 21.7656C546.283 21.7656 548.587 22.6641 550.488 24.4609C552.415 26.2318 553.379 28.3672 553.379 30.8672C553.379 33.3932 552.415 35.5547 550.488 37.3516C548.587 39.1224 546.283 40.0078 543.574 40.0078Z" fill="#FA9014"/>
<path d="M576.475 107L560.85 47H580.029L588.115 85.4375H588.623L597.295 47H616.006L624.912 85.1641H625.42L633.271 47H652.451L636.787 107H616.357L606.982 72.0391H606.318L596.943 107H576.475ZM677.031 108.016C673.203 108.016 669.805 107.378 666.836 106.102C663.893 104.799 661.563 102.846 659.844 100.242C658.151 97.612 657.305 94.3177 657.305 90.3594C657.305 87.026 657.891 84.2135 659.063 81.9219C660.234 79.6302 661.849 77.7682 663.906 76.3359C665.964 74.9036 668.333 73.8229 671.016 73.0937C673.698 72.3385 676.563 71.8307 679.609 71.5703C683.021 71.2578 685.768 70.9323 687.852 70.5938C689.935 70.2292 691.445 69.7214 692.383 69.0703C693.346 68.3932 693.828 67.4427 693.828 66.2187V66.0234C693.828 64.0182 693.138 62.4687 691.758 61.375C690.378 60.2812 688.516 59.7344 686.172 59.7344C683.646 59.7344 681.615 60.2812 680.078 61.375C678.542 62.4687 677.565 63.9792 677.148 65.9062L659.531 65.2812C660.052 61.6354 661.393 58.3802 663.555 55.5156C665.742 52.625 668.737 50.3594 672.539 48.7187C676.367 47.0521 680.964 46.2188 686.328 46.2188C690.156 46.2188 693.685 46.6745 696.914 47.5859C700.143 48.4714 702.956 49.7734 705.352 51.4922C707.747 53.1849 709.596 55.2682 710.898 57.7422C712.227 60.2161 712.891 63.0417 712.891 66.2187V107H694.922V98.6406H694.453C693.385 100.672 692.018 102.391 690.352 103.797C688.711 105.203 686.771 106.258 684.531 106.961C682.318 107.664 679.818 108.016 677.031 108.016ZM682.93 95.5156C684.987 95.5156 686.836 95.099 688.477 94.2656C690.143 93.4323 691.471 92.2865 692.461 90.8281C693.451 89.3437 693.945 87.625 693.945 85.6719V79.9687C693.398 80.2552 692.734 80.5156 691.953 80.75C691.198 80.9844 690.365 81.2057 689.453 81.4141C688.542 81.6224 687.604 81.8047 686.641 81.9609C685.677 82.1172 684.753 82.2604 683.867 82.3906C682.07 82.6771 680.534 83.1198 679.258 83.7187C678.008 84.3177 677.044 85.099 676.367 86.0625C675.716 87 675.391 88.1198 675.391 89.4219C675.391 91.401 676.094 92.9115 677.5 93.9531C678.932 94.9948 680.742 95.5156 682.93 95.5156ZM743.672 27V107H724.57V27H743.672ZM774.932 27V107H755.83V27H774.932ZM815.137 108.133C808.861 108.133 803.444 106.896 798.887 104.422C794.355 101.922 790.866 98.3672 788.418 93.7578C785.996 89.1224 784.785 83.6146 784.785 77.2344C784.785 71.0365 786.009 65.6198 788.457 60.9844C790.905 56.3229 794.355 52.7031 798.809 50.125C803.262 47.5208 808.509 46.2188 814.551 46.2188C818.822 46.2188 822.728 46.8828 826.27 48.2109C829.811 49.5391 832.871 51.5052 835.449 54.1094C838.027 56.7135 840.033 59.9297 841.465 63.7578C842.897 67.5599 843.613 71.9219 843.613 76.8437V81.6094H791.465V70.5156H825.84C825.814 68.4844 825.332 66.6745 824.395 65.0859C823.457 63.4974 822.168 62.2604 820.527 61.375C818.913 60.4635 817.051 60.0078 814.941 60.0078C812.806 60.0078 810.892 60.4896 809.199 61.4531C807.507 62.3906 806.165 63.6797 805.176 65.3203C804.186 66.9349 803.665 68.7708 803.613 70.8281V82.1172C803.613 84.5651 804.095 86.7135 805.059 88.5625C806.022 90.3854 807.389 91.8047 809.16 92.8203C810.931 93.8359 813.04 94.3437 815.488 94.3437C817.181 94.3437 818.717 94.1094 820.098 93.6406C821.478 93.1719 822.663 92.4818 823.652 91.5703C824.642 90.6589 825.384 89.5391 825.879 88.2109L843.418 88.7187C842.689 92.651 841.087 96.0755 838.613 98.9922C836.165 101.883 832.949 104.135 828.965 105.75C824.98 107.339 820.371 108.133 815.137 108.133ZM887.236 47V61.0625H849.385V47H887.236ZM857.314 32.625H876.416V88.1328C876.416 89.3047 876.598 90.2552 876.963 90.9844C877.354 91.6875 877.913 92.1953 878.643 92.5078C879.372 92.7943 880.244 92.9375 881.26 92.9375C881.989 92.9375 882.757 92.8724 883.564 92.7422C884.398 92.5859 885.023 92.4557 885.439 92.3516L888.33 106.141C887.419 106.401 886.13 106.727 884.463 107.117C882.822 107.508 880.856 107.755 878.564 107.859C874.085 108.068 870.244 107.547 867.041 106.297C863.864 105.021 861.429 103.042 859.736 100.359C858.07 97.6771 857.262 94.3047 857.314 90.2422V32.625Z" fill="#A31D14"/>
<path d="M353.301 144V127.636H355.73V130.108H355.901C356.199 129.298 356.739 128.641 357.52 128.137C358.301 127.633 359.182 127.381 360.162 127.381C360.347 127.381 360.577 127.384 360.854 127.391C361.131 127.398 361.341 127.409 361.483 127.423V129.98C361.398 129.959 361.202 129.927 360.897 129.884C360.599 129.835 360.283 129.81 359.949 129.81C359.153 129.81 358.443 129.977 357.818 130.31C357.2 130.637 356.71 131.092 356.348 131.674C355.993 132.249 355.815 132.906 355.815 133.645V144H353.301ZM370.526 144.341C368.949 144.341 367.589 143.993 366.446 143.297C365.309 142.594 364.432 141.614 363.814 140.357C363.204 139.092 362.898 137.622 362.898 135.946C362.898 134.27 363.204 132.793 363.814 131.514C364.432 130.229 365.292 129.227 366.392 128.51C367.5 127.786 368.793 127.423 370.27 127.423C371.123 127.423 371.964 127.565 372.795 127.849C373.626 128.134 374.383 128.595 375.064 129.234C375.746 129.866 376.289 130.705 376.694 131.749C377.099 132.793 377.302 134.078 377.302 135.605V136.67H364.688V134.497H374.745C374.745 133.574 374.56 132.75 374.191 132.026C373.829 131.301 373.31 130.729 372.635 130.31C371.968 129.891 371.179 129.682 370.27 129.682C369.269 129.682 368.402 129.93 367.671 130.428C366.946 130.918 366.389 131.557 365.998 132.345C365.608 133.134 365.412 133.979 365.412 134.881V136.33C365.412 137.565 365.625 138.613 366.052 139.472C366.485 140.325 367.085 140.974 367.852 141.422C368.619 141.862 369.51 142.082 370.526 142.082C371.187 142.082 371.783 141.99 372.316 141.805C372.856 141.614 373.321 141.33 373.711 140.953C374.102 140.57 374.404 140.094 374.617 139.526L377.046 140.207C376.79 141.031 376.361 141.756 375.757 142.381C375.153 142.999 374.407 143.482 373.52 143.83C372.632 144.17 371.634 144.341 370.526 144.341ZM392.417 131.301L390.159 131.94C390.016 131.564 389.807 131.198 389.53 130.843C389.26 130.481 388.891 130.183 388.422 129.948C387.953 129.714 387.353 129.597 386.622 129.597C385.62 129.597 384.786 129.827 384.118 130.289C383.458 130.744 383.127 131.322 383.127 132.026C383.127 132.651 383.355 133.144 383.809 133.506C384.264 133.869 384.974 134.17 385.94 134.412L388.369 135.009C389.832 135.364 390.922 135.907 391.639 136.638C392.357 137.363 392.715 138.297 392.715 139.44C392.715 140.378 392.445 141.216 391.906 141.955C391.373 142.693 390.627 143.276 389.668 143.702C388.71 144.128 387.595 144.341 386.323 144.341C384.654 144.341 383.273 143.979 382.179 143.254C381.085 142.53 380.393 141.472 380.102 140.08L382.488 139.483C382.715 140.364 383.145 141.024 383.777 141.464C384.416 141.905 385.251 142.125 386.281 142.125C387.453 142.125 388.383 141.876 389.072 141.379C389.768 140.875 390.116 140.271 390.116 139.568C390.116 139 389.917 138.524 389.519 138.141C389.122 137.75 388.511 137.459 387.687 137.267L384.96 136.628C383.461 136.273 382.36 135.722 381.657 134.977C380.961 134.224 380.613 133.283 380.613 132.153C380.613 131.23 380.872 130.413 381.391 129.703C381.916 128.993 382.63 128.435 383.532 128.031C384.441 127.626 385.471 127.423 386.622 127.423C388.241 127.423 389.512 127.778 390.436 128.489C391.366 129.199 392.026 130.136 392.417 131.301ZM396.2 144V127.636H398.714V144H396.2ZM397.478 124.909C396.988 124.909 396.566 124.742 396.211 124.408C395.863 124.075 395.689 123.673 395.689 123.205C395.689 122.736 395.863 122.335 396.211 122.001C396.566 121.667 396.988 121.5 397.478 121.5C397.968 121.5 398.387 121.667 398.735 122.001C399.091 122.335 399.268 122.736 399.268 123.205C399.268 123.673 399.091 124.075 398.735 124.408C398.387 124.742 397.968 124.909 397.478 124.909ZM409.198 144.341C407.834 144.341 406.631 143.996 405.587 143.308C404.543 142.612 403.726 141.631 403.136 140.367C402.547 139.096 402.252 137.594 402.252 135.861C402.252 134.142 402.547 132.651 403.136 131.386C403.726 130.122 404.546 129.146 405.597 128.457C406.648 127.768 407.863 127.423 409.241 127.423C410.306 127.423 411.148 127.601 411.766 127.956C412.391 128.304 412.866 128.702 413.193 129.149C413.527 129.589 413.786 129.952 413.971 130.236H414.184V122.182H416.698V144H414.269V141.486H413.971C413.786 141.784 413.523 142.161 413.182 142.615C412.842 143.062 412.355 143.464 411.723 143.819C411.091 144.167 410.249 144.341 409.198 144.341ZM409.539 142.082C410.548 142.082 411.4 141.82 412.096 141.294C412.792 140.761 413.321 140.026 413.683 139.089C414.045 138.144 414.226 137.054 414.226 135.818C414.226 134.597 414.049 133.528 413.694 132.612C413.339 131.688 412.813 130.971 412.117 130.46C411.421 129.941 410.562 129.682 409.539 129.682C408.474 129.682 407.586 129.955 406.876 130.502C406.173 131.042 405.643 131.777 405.288 132.707C404.94 133.631 404.766 134.668 404.766 135.818C404.766 136.983 404.944 138.041 405.299 138.993C405.661 139.937 406.194 140.69 406.897 141.251C407.607 141.805 408.488 142.082 409.539 142.082ZM428.213 144.341C426.636 144.341 425.276 143.993 424.132 143.297C422.996 142.594 422.119 141.614 421.501 140.357C420.89 139.092 420.585 137.622 420.585 135.946C420.585 134.27 420.89 132.793 421.501 131.514C422.119 130.229 422.978 129.227 424.079 128.51C425.187 127.786 426.48 127.423 427.957 127.423C428.809 127.423 429.651 127.565 430.482 127.849C431.313 128.134 432.069 128.595 432.751 129.234C433.433 129.866 433.976 130.705 434.381 131.749C434.786 132.793 434.988 134.078 434.988 135.605V136.67H422.375V134.497H432.431C432.431 133.574 432.247 132.75 431.877 132.026C431.515 131.301 430.997 130.729 430.322 130.31C429.654 129.891 428.866 129.682 427.957 129.682C426.956 129.682 426.089 129.93 425.358 130.428C424.633 130.918 424.076 131.557 423.685 132.345C423.294 133.134 423.099 133.979 423.099 134.881V136.33C423.099 137.565 423.312 138.613 423.738 139.472C424.172 140.325 424.772 140.974 425.539 141.422C426.306 141.862 427.197 142.082 428.213 142.082C428.873 142.082 429.47 141.99 430.002 141.805C430.542 141.614 431.007 141.33 431.398 140.953C431.789 140.57 432.091 140.094 432.304 139.526L434.733 140.207C434.477 141.031 434.047 141.756 433.444 142.381C432.84 142.999 432.094 143.482 431.206 143.83C430.319 144.17 429.321 144.341 428.213 144.341ZM441.027 134.156V144H438.513V127.636H440.942V130.193H441.155C441.538 129.362 442.121 128.695 442.902 128.19C443.683 127.679 444.692 127.423 445.928 127.423C447.036 127.423 448.005 127.651 448.836 128.105C449.667 128.553 450.313 129.234 450.775 130.151C451.237 131.06 451.467 132.21 451.467 133.602V144H448.953V133.773C448.953 132.487 448.619 131.486 447.952 130.768C447.284 130.044 446.368 129.682 445.203 129.682C444.401 129.682 443.683 129.856 443.051 130.204C442.426 130.552 441.933 131.06 441.57 131.727C441.208 132.395 441.027 133.205 441.027 134.156ZM462.878 127.636V129.767H454.398V127.636H462.878ZM456.87 123.716H459.384V139.312C459.384 140.023 459.487 140.555 459.693 140.911C459.906 141.259 460.176 141.493 460.502 141.614C460.836 141.727 461.188 141.784 461.557 141.784C461.834 141.784 462.061 141.77 462.239 141.741C462.417 141.706 462.559 141.678 462.665 141.656L463.176 143.915C463.006 143.979 462.768 144.043 462.463 144.107C462.157 144.178 461.77 144.213 461.301 144.213C460.591 144.213 459.895 144.06 459.213 143.755C458.539 143.45 457.978 142.984 457.53 142.359C457.09 141.734 456.87 140.946 456.87 139.994V123.716ZM466.36 144V127.636H468.874V144H466.36ZM467.639 124.909C467.148 124.909 466.726 124.742 466.371 124.408C466.023 124.075 465.849 123.673 465.849 123.205C465.849 122.736 466.023 122.335 466.371 122.001C466.726 121.667 467.148 121.5 467.639 121.5C468.129 121.5 468.548 121.667 468.896 122.001C469.251 122.335 469.428 122.736 469.428 123.205C469.428 123.673 469.251 124.075 468.896 124.408C468.548 124.742 468.129 124.909 467.639 124.909ZM477.995 144.384C476.958 144.384 476.017 144.188 475.171 143.798C474.326 143.4 473.655 142.828 473.158 142.082C472.661 141.33 472.412 140.42 472.412 139.355C472.412 138.418 472.597 137.658 472.966 137.075C473.336 136.486 473.829 136.024 474.447 135.69C475.065 135.357 475.747 135.108 476.492 134.945C477.245 134.774 478.002 134.639 478.762 134.54C479.756 134.412 480.562 134.316 481.18 134.252C481.805 134.181 482.26 134.064 482.544 133.901C482.835 133.737 482.98 133.453 482.98 133.048V132.963C482.98 131.912 482.693 131.095 482.117 130.513C481.549 129.93 480.686 129.639 479.529 129.639C478.328 129.639 477.387 129.902 476.706 130.428C476.024 130.953 475.544 131.514 475.267 132.111L472.881 131.259C473.307 130.264 473.875 129.49 474.586 128.936C475.303 128.375 476.084 127.984 476.929 127.764C477.782 127.537 478.62 127.423 479.443 127.423C479.969 127.423 480.573 127.487 481.255 127.615C481.943 127.736 482.608 127.988 483.247 128.371C483.893 128.755 484.429 129.334 484.855 130.108C485.282 130.882 485.495 131.919 485.495 133.219V144H482.98V141.784H482.853C482.682 142.139 482.398 142.519 482 142.924C481.603 143.329 481.073 143.673 480.413 143.957C479.752 144.241 478.946 144.384 477.995 144.384ZM478.378 142.125C479.372 142.125 480.211 141.93 480.892 141.539C481.581 141.148 482.1 140.644 482.448 140.026C482.803 139.408 482.98 138.759 482.98 138.077V135.776C482.874 135.903 482.639 136.021 482.277 136.127C481.922 136.227 481.51 136.315 481.041 136.393C480.58 136.464 480.129 136.528 479.688 136.585C479.255 136.635 478.904 136.678 478.634 136.713C477.98 136.798 477.37 136.937 476.801 137.129C476.24 137.313 475.786 137.594 475.438 137.97C475.097 138.339 474.926 138.844 474.926 139.483C474.926 140.357 475.25 141.017 475.896 141.464C476.549 141.905 477.377 142.125 478.378 142.125ZM492.298 122.182V144H489.784V122.182H492.298ZM511.388 144.341C509.854 144.341 508.533 143.979 507.425 143.254C506.317 142.53 505.465 141.532 504.868 140.261C504.271 138.989 503.973 137.537 503.973 135.903C503.973 134.241 504.279 132.775 504.889 131.504C505.507 130.225 506.367 129.227 507.467 128.51C508.575 127.786 509.868 127.423 511.345 127.423C512.496 127.423 513.533 127.636 514.456 128.062C515.379 128.489 516.136 129.085 516.725 129.852C517.315 130.619 517.681 131.514 517.823 132.537H515.308C515.117 131.791 514.69 131.131 514.03 130.555C513.377 129.973 512.496 129.682 511.388 129.682C510.408 129.682 509.548 129.937 508.81 130.449C508.078 130.953 507.507 131.667 507.095 132.59C506.69 133.506 506.487 134.582 506.487 135.818C506.487 137.082 506.686 138.183 507.084 139.121C507.489 140.058 508.057 140.786 508.788 141.305C509.527 141.823 510.394 142.082 511.388 142.082C512.041 142.082 512.634 141.969 513.167 141.741C513.7 141.514 514.151 141.188 514.52 140.761C514.889 140.335 515.152 139.824 515.308 139.227H517.823C517.681 140.193 517.329 141.063 516.768 141.837C516.214 142.604 515.479 143.215 514.563 143.67C513.654 144.117 512.595 144.341 511.388 144.341ZM527.846 144.341C526.368 144.341 525.072 143.989 523.957 143.286C522.849 142.583 521.983 141.599 521.358 140.335C520.74 139.071 520.431 137.594 520.431 135.903C520.431 134.199 520.74 132.711 521.358 131.44C521.983 130.168 522.849 129.181 523.957 128.478C525.072 127.775 526.368 127.423 527.846 127.423C529.323 127.423 530.616 127.775 531.724 128.478C532.839 129.181 533.705 130.168 534.323 131.44C534.948 132.711 535.261 134.199 535.261 135.903C535.261 137.594 534.948 139.071 534.323 140.335C533.705 141.599 532.839 142.583 531.724 143.286C530.616 143.989 529.323 144.341 527.846 144.341ZM527.846 142.082C528.968 142.082 529.891 141.795 530.616 141.219C531.34 140.644 531.876 139.888 532.224 138.95C532.572 138.013 532.746 136.997 532.746 135.903C532.746 134.81 532.572 133.79 532.224 132.846C531.876 131.901 531.34 131.138 530.616 130.555C529.891 129.973 528.968 129.682 527.846 129.682C526.724 129.682 525.8 129.973 525.076 130.555C524.351 131.138 523.815 131.901 523.467 132.846C523.119 133.79 522.945 134.81 522.945 135.903C522.945 136.997 523.119 138.013 523.467 138.95C523.815 139.888 524.351 140.644 525.076 141.219C525.8 141.795 526.724 142.082 527.846 142.082ZM538.798 144V127.636H541.227V130.193H541.44C541.781 129.32 542.332 128.641 543.092 128.158C543.852 127.668 544.764 127.423 545.83 127.423C546.909 127.423 547.808 127.668 548.525 128.158C549.249 128.641 549.814 129.32 550.219 130.193H550.389C550.808 129.348 551.437 128.677 552.275 128.18C553.113 127.675 554.118 127.423 555.29 127.423C556.753 127.423 557.95 127.881 558.88 128.798C559.81 129.707 560.276 131.124 560.276 133.048V144H557.761V133.048C557.761 131.841 557.431 130.978 556.771 130.46C556.11 129.941 555.332 129.682 554.438 129.682C553.287 129.682 552.396 130.03 551.764 130.726C551.132 131.415 550.815 132.288 550.815 133.347V144H548.259V132.793C548.259 131.862 547.957 131.113 547.353 130.545C546.749 129.969 545.972 129.682 545.02 129.682C544.367 129.682 543.756 129.856 543.188 130.204C542.627 130.552 542.172 131.035 541.824 131.653C541.483 132.263 541.313 132.97 541.313 133.773V144H538.798ZM564.573 144V127.636H567.002V130.193H567.215C567.556 129.32 568.106 128.641 568.866 128.158C569.626 127.668 570.539 127.423 571.604 127.423C572.683 127.423 573.582 127.668 574.299 128.158C575.024 128.641 575.588 129.32 575.993 130.193H576.164C576.583 129.348 577.211 128.677 578.049 128.18C578.887 127.675 579.892 127.423 581.064 127.423C582.527 127.423 583.724 127.881 584.654 128.798C585.585 129.707 586.05 131.124 586.05 133.048V144H583.536V133.048C583.536 131.841 583.205 130.978 582.545 130.46C581.884 129.941 581.107 129.682 580.212 129.682C579.061 129.682 578.17 130.03 577.538 130.726C576.906 131.415 576.59 132.288 576.59 133.347V144H574.033V132.793C574.033 131.862 573.731 131.113 573.127 130.545C572.524 129.969 571.746 129.682 570.794 129.682C570.141 129.682 569.53 129.856 568.962 130.204C568.401 130.552 567.946 131.035 567.598 131.653C567.257 132.263 567.087 132.97 567.087 133.773V144H564.573ZM600.659 137.31V127.636H603.174V144H600.659V141.23H600.489C600.105 142.061 599.509 142.768 598.699 143.35C597.889 143.925 596.867 144.213 595.631 144.213C594.608 144.213 593.699 143.989 592.904 143.542C592.108 143.087 591.483 142.406 591.029 141.496C590.574 140.58 590.347 139.426 590.347 138.034V127.636H592.861V137.864C592.861 139.057 593.195 140.009 593.862 140.719C594.537 141.429 595.397 141.784 596.441 141.784C597.066 141.784 597.701 141.624 598.348 141.305C599.001 140.985 599.548 140.495 599.988 139.835C600.436 139.174 600.659 138.332 600.659 137.31ZM609.993 134.156V144H607.478V127.636H609.907V130.193H610.121C610.504 129.362 611.086 128.695 611.868 128.19C612.649 127.679 613.657 127.423 614.893 127.423C616.001 127.423 616.971 127.651 617.802 128.105C618.633 128.553 619.279 129.234 619.741 130.151C620.202 131.06 620.433 132.21 620.433 133.602V144H617.919V133.773C617.919 132.487 617.585 131.486 616.917 130.768C616.25 130.044 615.334 129.682 614.169 129.682C613.366 129.682 612.649 129.856 612.017 130.204C611.392 130.552 610.898 131.06 610.536 131.727C610.174 132.395 609.993 133.205 609.993 134.156ZM624.727 144V127.636H627.242V144H624.727ZM626.006 124.909C625.516 124.909 625.093 124.742 624.738 124.408C624.39 124.075 624.216 123.673 624.216 123.205C624.216 122.736 624.39 122.335 624.738 122.001C625.093 121.667 625.516 121.5 626.006 121.5C626.496 121.5 626.915 121.667 627.263 122.001C627.618 122.335 627.795 122.736 627.795 123.205C627.795 123.673 627.618 124.075 627.263 124.408C626.915 124.742 626.496 124.909 626.006 124.909ZM638.663 127.636V129.767H630.183V127.636H638.663ZM632.654 123.716H635.169V139.312C635.169 140.023 635.272 140.555 635.478 140.911C635.691 141.259 635.96 141.493 636.287 141.614C636.621 141.727 636.973 141.784 637.342 141.784C637.619 141.784 637.846 141.77 638.024 141.741C638.201 141.706 638.343 141.678 638.45 141.656L638.961 143.915C638.791 143.979 638.553 144.043 638.247 144.107C637.942 144.178 637.555 144.213 637.086 144.213C636.376 144.213 635.68 144.06 634.998 143.755C634.323 143.45 633.762 142.984 633.315 142.359C632.875 141.734 632.654 140.946 632.654 139.994V123.716ZM643.764 150.136C643.338 150.136 642.958 150.101 642.624 150.03C642.29 149.966 642.06 149.902 641.932 149.838L642.571 147.622C643.182 147.778 643.722 147.835 644.19 147.793C644.659 147.75 645.075 147.54 645.437 147.164C645.806 146.795 646.143 146.195 646.449 145.364L646.918 144.085L640.866 127.636H643.594L648.111 140.676H648.281L652.798 127.636H655.526L648.58 146.386C648.267 147.232 647.88 147.931 647.418 148.485C646.957 149.046 646.42 149.462 645.81 149.732C645.206 150.001 644.524 150.136 643.764 150.136ZM673.542 144.341C671.966 144.341 670.606 143.993 669.462 143.297C668.326 142.594 667.449 141.614 666.831 140.357C666.22 139.092 665.915 137.622 665.915 135.946C665.915 134.27 666.22 132.793 666.831 131.514C667.449 130.229 668.308 129.227 669.409 128.51C670.517 127.786 671.809 127.423 673.287 127.423C674.139 127.423 674.981 127.565 675.812 127.849C676.643 128.134 677.399 128.595 678.081 129.234C678.763 129.866 679.306 130.705 679.711 131.749C680.116 132.793 680.318 134.078 680.318 135.605V136.67H667.704V134.497H677.761C677.761 133.574 677.576 132.75 677.207 132.026C676.845 131.301 676.326 130.729 675.652 130.31C674.984 129.891 674.196 129.682 673.287 129.682C672.285 129.682 671.419 129.93 670.687 130.428C669.963 130.918 669.405 131.557 669.015 132.345C668.624 133.134 668.429 133.979 668.429 134.881V136.33C668.429 137.565 668.642 138.613 669.068 139.472C669.501 140.325 670.101 140.974 670.868 141.422C671.635 141.862 672.527 142.082 673.542 142.082C674.203 142.082 674.799 141.99 675.332 141.805C675.872 141.614 676.337 141.33 676.728 140.953C677.118 140.57 677.42 140.094 677.633 139.526L680.062 140.207C679.807 141.031 679.377 141.756 678.773 142.381C678.17 142.999 677.424 143.482 676.536 143.83C675.648 144.17 674.65 144.341 673.542 144.341ZM685.278 127.636L689.199 134.327L693.119 127.636H696.017L690.733 135.818L696.017 144H693.119L689.199 137.651L685.278 144H682.38L687.579 135.818L682.38 127.636H685.278ZM699.304 150.136V127.636H701.733V130.236H702.032C702.216 129.952 702.472 129.589 702.799 129.149C703.132 128.702 703.608 128.304 704.226 127.956C704.851 127.601 705.696 127.423 706.762 127.423C708.139 127.423 709.354 127.768 710.405 128.457C711.456 129.146 712.277 130.122 712.866 131.386C713.456 132.651 713.75 134.142 713.75 135.861C713.75 137.594 713.456 139.096 712.866 140.367C712.277 141.631 711.46 142.612 710.416 143.308C709.372 143.996 708.168 144.341 706.804 144.341C705.753 144.341 704.911 144.167 704.279 143.819C703.647 143.464 703.161 143.062 702.82 142.615C702.479 142.161 702.216 141.784 702.032 141.486H701.818V150.136H699.304ZM701.776 135.818C701.776 137.054 701.957 138.144 702.319 139.089C702.681 140.026 703.21 140.761 703.907 141.294C704.603 141.82 705.455 142.082 706.463 142.082C707.514 142.082 708.392 141.805 709.095 141.251C709.805 140.69 710.338 139.937 710.693 138.993C711.055 138.041 711.236 136.983 711.236 135.818C711.236 134.668 711.059 133.631 710.703 132.707C710.355 131.777 709.826 131.042 709.116 130.502C708.413 129.955 707.529 129.682 706.463 129.682C705.441 129.682 704.581 129.941 703.885 130.46C703.189 130.971 702.664 131.688 702.309 132.612C701.953 133.528 701.776 134.597 701.776 135.818ZM724.146 144.341C722.57 144.341 721.21 143.993 720.066 143.297C718.93 142.594 718.053 141.614 717.435 140.357C716.824 139.092 716.518 137.622 716.518 135.946C716.518 134.27 716.824 132.793 717.435 131.514C718.053 130.229 718.912 129.227 720.013 128.51C721.121 127.786 722.413 127.423 723.891 127.423C724.743 127.423 725.585 127.565 726.415 127.849C727.246 128.134 728.003 128.595 728.685 129.234C729.366 129.866 729.91 130.705 730.315 131.749C730.719 132.793 730.922 134.078 730.922 135.605V136.67H718.308V134.497H728.365C728.365 133.574 728.18 132.75 727.811 132.026C727.449 131.301 726.93 130.729 726.256 130.31C725.588 129.891 724.8 129.682 723.891 129.682C722.889 129.682 722.023 129.93 721.291 130.428C720.567 130.918 720.009 131.557 719.619 132.345C719.228 133.134 719.033 133.979 719.033 134.881V136.33C719.033 137.565 719.246 138.613 719.672 139.472C720.105 140.325 720.705 140.974 721.472 141.422C722.239 141.862 723.131 142.082 724.146 142.082C724.807 142.082 725.403 141.99 725.936 141.805C726.476 141.614 726.941 141.33 727.332 140.953C727.722 140.57 728.024 140.094 728.237 139.526L730.666 140.207C730.411 141.031 729.981 141.756 729.377 142.381C728.773 142.999 728.028 143.482 727.14 143.83C726.252 144.17 725.254 144.341 724.146 144.341ZM736.961 134.156V144H734.446V127.636H736.875V130.193H737.089C737.472 129.362 738.054 128.695 738.836 128.19C739.617 127.679 740.625 127.423 741.861 127.423C742.969 127.423 743.939 127.651 744.77 128.105C745.601 128.553 746.247 129.234 746.709 130.151C747.17 131.06 747.401 132.21 747.401 133.602V144H744.887V133.773C744.887 132.487 744.553 131.486 743.885 130.768C743.218 130.044 742.302 129.682 741.137 129.682C740.334 129.682 739.617 129.856 738.985 130.204C738.36 130.552 737.866 131.06 737.504 131.727C737.142 132.395 736.961 133.205 736.961 134.156ZM763.286 131.301L761.028 131.94C760.886 131.564 760.676 131.198 760.399 130.843C760.129 130.481 759.76 130.183 759.291 129.948C758.822 129.714 758.222 129.597 757.491 129.597C756.489 129.597 755.655 129.827 754.987 130.289C754.327 130.744 753.996 131.322 753.996 132.026C753.996 132.651 754.224 133.144 754.678 133.506C755.133 133.869 755.843 134.17 756.809 134.412L759.238 135.009C760.701 135.364 761.791 135.907 762.508 136.638C763.226 137.363 763.584 138.297 763.584 139.44C763.584 140.378 763.315 141.216 762.775 141.955C762.242 142.693 761.496 143.276 760.538 143.702C759.579 144.128 758.464 144.341 757.192 144.341C755.523 144.341 754.142 143.979 753.048 143.254C751.955 142.53 751.262 141.472 750.971 140.08L753.357 139.483C753.584 140.364 754.014 141.024 754.646 141.464C755.285 141.905 756.12 142.125 757.15 142.125C758.322 142.125 759.252 141.876 759.941 141.379C760.637 140.875 760.985 140.271 760.985 139.568C760.985 139 760.786 138.524 760.388 138.141C759.991 137.75 759.38 137.459 758.556 137.267L755.829 136.628C754.33 136.273 753.229 135.722 752.526 134.977C751.83 134.224 751.482 133.283 751.482 132.153C751.482 131.23 751.741 130.413 752.26 129.703C752.785 128.993 753.499 128.435 754.401 128.031C755.31 127.626 756.34 127.423 757.491 127.423C759.11 127.423 760.381 127.778 761.305 128.489C762.235 129.199 762.896 130.136 763.286 131.301ZM773.93 144.341C772.353 144.341 770.993 143.993 769.85 143.297C768.713 142.594 767.836 141.614 767.218 140.357C766.607 139.092 766.302 137.622 766.302 135.946C766.302 134.27 766.607 132.793 767.218 131.514C767.836 130.229 768.696 129.227 769.796 128.51C770.904 127.786 772.197 127.423 773.674 127.423C774.526 127.423 775.368 127.565 776.199 127.849C777.03 128.134 777.786 128.595 778.468 129.234C779.15 129.866 779.693 130.705 780.098 131.749C780.503 132.793 780.705 134.078 780.705 135.605V136.67H768.092V134.497H778.149C778.149 133.574 777.964 132.75 777.595 132.026C777.232 131.301 776.714 130.729 776.039 130.31C775.372 129.891 774.583 129.682 773.674 129.682C772.673 129.682 771.806 129.93 771.075 130.428C770.35 130.918 769.793 131.557 769.402 132.345C769.012 133.134 768.816 133.979 768.816 134.881V136.33C768.816 137.565 769.029 138.613 769.455 139.472C769.889 140.325 770.489 140.974 771.256 141.422C772.023 141.862 772.914 142.082 773.93 142.082C774.59 142.082 775.187 141.99 775.72 141.805C776.259 141.614 776.725 141.33 777.115 140.953C777.506 140.57 777.808 140.094 778.021 139.526L780.45 140.207C780.194 141.031 779.764 141.756 779.161 142.381C778.557 142.999 777.811 143.482 776.924 143.83C776.036 144.17 775.038 144.341 773.93 144.341ZM799.484 127.636V129.767H791.004V127.636H799.484ZM793.475 123.716H795.99V139.312C795.99 140.023 796.093 140.555 796.299 140.911C796.512 141.259 796.782 141.493 797.108 141.614C797.442 141.727 797.794 141.784 798.163 141.784C798.44 141.784 798.667 141.77 798.845 141.741C799.022 141.706 799.164 141.678 799.271 141.656L799.782 143.915C799.612 143.979 799.374 144.043 799.069 144.107C798.763 144.178 798.376 144.213 797.907 144.213C797.197 144.213 796.501 144.06 795.819 143.755C795.145 143.45 794.583 142.984 794.136 142.359C793.696 141.734 793.475 140.946 793.475 139.994V123.716ZM802.966 144V127.636H805.395V130.108H805.565C805.864 129.298 806.403 128.641 807.185 128.137C807.966 127.633 808.847 127.381 809.827 127.381C810.011 127.381 810.242 127.384 810.519 127.391C810.796 127.398 811.006 127.409 811.148 127.423V129.98C811.063 129.959 810.867 129.927 810.562 129.884C810.264 129.835 809.948 129.81 809.614 129.81C808.818 129.81 808.108 129.977 807.483 130.31C806.865 130.637 806.375 131.092 806.013 131.674C805.658 132.249 805.48 132.906 805.48 133.645V144H802.966ZM818.643 144.384C817.606 144.384 816.665 144.188 815.82 143.798C814.975 143.4 814.304 142.828 813.807 142.082C813.31 141.33 813.061 140.42 813.061 139.355C813.061 138.418 813.246 137.658 813.615 137.075C813.984 136.486 814.478 136.024 815.096 135.69C815.714 135.357 816.396 135.108 817.141 134.945C817.894 134.774 818.651 134.639 819.41 134.54C820.405 134.412 821.211 134.316 821.829 134.252C822.454 134.181 822.908 134.064 823.192 133.901C823.484 133.737 823.629 133.453 823.629 133.048V132.963C823.629 131.912 823.342 131.095 822.766 130.513C822.198 129.93 821.335 129.639 820.178 129.639C818.977 129.639 818.036 129.902 817.354 130.428C816.673 130.953 816.193 131.514 815.916 132.111L813.53 131.259C813.956 130.264 814.524 129.49 815.234 128.936C815.952 128.375 816.733 127.984 817.578 127.764C818.43 127.537 819.268 127.423 820.092 127.423C820.618 127.423 821.222 127.487 821.903 127.615C822.592 127.736 823.256 127.988 823.896 128.371C824.542 128.755 825.078 129.334 825.504 130.108C825.93 130.882 826.143 131.919 826.143 133.219V144H823.629V141.784H823.501C823.331 142.139 823.047 142.519 822.649 142.924C822.251 143.329 821.722 143.673 821.062 143.957C820.401 144.241 819.595 144.384 818.643 144.384ZM819.027 142.125C820.021 142.125 820.859 141.93 821.541 141.539C822.23 141.148 822.749 140.644 823.097 140.026C823.452 139.408 823.629 138.759 823.629 138.077V135.776C823.523 135.903 823.288 136.021 822.926 136.127C822.571 136.227 822.159 136.315 821.69 136.393C821.229 136.464 820.778 136.528 820.337 136.585C819.904 136.635 819.553 136.678 819.283 136.713C818.629 136.798 818.018 136.937 817.45 137.129C816.889 137.313 816.435 137.594 816.087 137.97C815.746 138.339 815.575 138.844 815.575 139.483C815.575 140.357 815.898 141.017 816.545 141.464C817.198 141.905 818.026 142.125 819.027 142.125ZM837.08 144.341C835.546 144.341 834.225 143.979 833.117 143.254C832.009 142.53 831.157 141.532 830.56 140.261C829.964 138.989 829.665 137.537 829.665 135.903C829.665 134.241 829.971 132.775 830.582 131.504C831.199 130.225 832.059 129.227 833.16 128.51C834.268 127.786 835.56 127.423 837.038 127.423C838.188 127.423 839.225 127.636 840.148 128.062C841.072 128.489 841.828 129.085 842.417 129.852C843.007 130.619 843.373 131.514 843.515 132.537H841.001C840.809 131.791 840.383 131.131 839.722 130.555C839.069 129.973 838.188 129.682 837.08 129.682C836.1 129.682 835.241 129.937 834.502 130.449C833.77 130.953 833.199 131.667 832.787 132.59C832.382 133.506 832.18 134.582 832.18 135.818C832.18 137.082 832.378 138.183 832.776 139.121C833.181 140.058 833.749 140.786 834.481 141.305C835.219 141.823 836.086 142.082 837.08 142.082C837.734 142.082 838.327 141.969 838.859 141.741C839.392 141.514 839.843 141.188 840.212 140.761C840.582 140.335 840.844 139.824 841.001 139.227H843.515C843.373 140.193 843.021 141.063 842.46 141.837C841.906 142.604 841.171 143.215 840.255 143.67C839.346 144.117 838.288 144.341 837.08 144.341ZM849.234 138.034L849.191 134.923H849.703L856.862 127.636H859.973L852.345 135.349H852.132L849.234 138.034ZM846.89 144V122.182H849.404V144H846.89ZM857.288 144L850.896 135.903L852.686 134.156L860.484 144H857.288ZM869.096 144.341C867.519 144.341 866.159 143.993 865.015 143.297C863.879 142.594 863.002 141.614 862.384 140.357C861.773 139.092 861.468 137.622 861.468 135.946C861.468 134.27 861.773 132.793 862.384 131.514C863.002 130.229 863.861 129.227 864.962 128.51C866.07 127.786 867.363 127.423 868.84 127.423C869.692 127.423 870.534 127.565 871.365 127.849C872.196 128.134 872.952 128.595 873.634 129.234C874.316 129.866 874.859 130.705 875.264 131.749C875.669 132.793 875.871 134.078 875.871 135.605V136.67H863.257V134.497H873.314C873.314 133.574 873.13 132.75 872.76 132.026C872.398 131.301 871.88 130.729 871.205 130.31C870.537 129.891 869.749 129.682 868.84 129.682C867.838 129.682 866.972 129.93 866.24 130.428C865.516 130.918 864.958 131.557 864.568 132.345C864.177 133.134 863.982 133.979 863.982 134.881V136.33C863.982 137.565 864.195 138.613 864.621 139.472C865.054 140.325 865.654 140.974 866.422 141.422C867.189 141.862 868.08 142.082 869.096 142.082C869.756 142.082 870.353 141.99 870.885 141.805C871.425 141.614 871.89 141.33 872.281 140.953C872.672 140.57 872.973 140.094 873.186 139.526L875.615 140.207C875.36 141.031 874.93 141.756 874.326 142.381C873.723 142.999 872.977 143.482 872.089 143.83C871.201 144.17 870.203 144.341 869.096 144.341ZM879.396 144V127.636H881.825V130.108H881.995C882.293 129.298 882.833 128.641 883.614 128.137C884.396 127.633 885.276 127.381 886.256 127.381C886.441 127.381 886.672 127.384 886.949 127.391C887.226 127.398 887.435 127.409 887.577 127.423V129.98C887.492 129.959 887.297 129.927 886.992 129.884C886.693 129.835 886.377 129.81 886.043 129.81C885.248 129.81 884.538 129.977 883.913 130.31C883.295 130.637 882.805 131.092 882.443 131.674C882.087 132.249 881.91 132.906 881.91 133.645V144H879.396Z" fill="#6C6C6C"/>
<defs>
<linearGradient id="paint0_linear_103_35" x1="14" y1="149" x2="136.922" y2="124.899" gradientUnits="userSpaceOnUse">
<stop stop-color="#6B0F09"/>
<stop offset="1" stop-color="#A31D14"/>
</linearGradient>
<linearGradient id="paint1_linear_103_35" x1="168" y1="3" x2="-21.5876" y2="102.669" gradientUnits="userSpaceOnUse">
<stop stop-color="#FA9014"/>
<stop offset="1" stop-color="#CF2904"/>
</linearGradient>
</defs>
</svg>
